<svg id="Calque_1" data-name="Calque 1" xmlns="http://www.w3.org/2000/svg" viewBox="0 0 425.2 425.2"><defs><style>.cls-1{fill-rule:evenodd;}</style></defs><title>GRAVOSIGN_PICTO_35</title><path class="cls-1" d="M379.72,351.3,221.25,63.42a9.74,9.74,0,0,0-13.64-3.83A10.25,10.25,0,0,0,204,63.42L45.48,351.3a10.76,10.76,0,0,0,3.66,14.31,9.63,9.63,0,0,0,5,1.4H371.07a10.24,10.24,0,0,0,10-10.48A10.88,10.88,0,0,0,379.72,351.3ZM71.43,346.07,212.6,89.61,353.77,346.07Z"/><polygon class="cls-1" points="192.14 163.8 179.29 244.44 220.11 239.73 207.52 299.32 185.25 276.78 203.74 335.11 250.47 295.35 219.73 303.42 256.65 215.94 206.61 221.49 230.58 157.17 192.14 163.8"/></svg>