<svg id="Calque_1" data-name="Calque 1" xmlns="http://www.w3.org/2000/svg" viewBox="0 0 425.2 425.2"><defs><style>.cls-1{fill-rule:evenodd;}</style></defs><title>GRAVOSIGN_PICTO_16</title><circle cx="253.91" cy="190.01" r="16.36" transform="translate(-4.9 6.72) rotate(-1.5)"/><path class="cls-1" d="M114.33,216.73a191.23,191.23,0,0,1,71.15.8,223.81,223.81,0,0,1-2.21,69.35,19.54,19.54,0,0,1-11.76,13.39L170.45,278l-2.27-.24L161.08,364l-25.17.66L132.19,278l-1.79-.12-2.72,21.61a27.54,27.54,0,0,1-11.37-15.06A332.3,332.3,0,0,1,114.33,216.73Z"/><path class="cls-1" d="M239.6,266.82a69.37,69.37,0,0,1-13.44-46.13,17.53,17.53,0,0,1,12.5-5.22l30.17,0A16.42,16.42,0,0,1,280,221.32a60.12,60.12,0,0,1-12.27,45.17l28.89,29a28.66,28.66,0,0,1-28.73,8.5l-13.1,60.28-7.33.19-9.87-65.39a65.09,65.09,0,0,0-25.74-2.18Z"/><circle cx="151.16" cy="188.61" r="16.36" transform="translate(-4.89 4.03) rotate(-1.5)"/><polygon class="cls-1" points="137.21 126.3 132.28 121.37 154.58 99.07 159.51 94.14 164.44 99.07 186.74 121.37 181.81 126.3 166.51 110.97 163 106.72 163 147.61 156.03 147.61 156.03 106.72 152.41 111.08 137.21 126.3"/><polygon class="cls-1" points="267.23 115.45 272.16 120.38 249.86 142.68 244.93 147.61 240 142.68 217.69 120.38 222.62 115.45 237.93 130.77 241.44 135.02 241.44 94.14 248.41 94.14 248.41 135.02 252.03 130.67 267.23 115.45"/><rect x="76.29" y="84.99" width="12.26" height="288.8"/><rect x="321.51" y="84.99" width="12.26" height="288.8"/></svg>