<svg id="Calque_1" data-name="Calque 1" xmlns="http://www.w3.org/2000/svg" viewBox="0 0 425.2 425.2"><defs><style>.cls-1{fill-rule:evenodd;}</style></defs><title>GRAVOSIGN_PICTO_22</title><path class="cls-1" d="M146.19,203.81l63.88,63.88A21.89,21.89,0,1,1,179.51,299l-.38-.38L77.44,197a6.56,6.56,0,0,1-.93-1.26A21.91,21.91,0,0,1,79.63,165L179.13,65.5a21.89,21.89,0,0,1,31.33,30.56l-.38.38L146.48,160H356.23a22.1,22.1,0,0,1,25.29,22.67q0,.14,0,.28v23.18h0V276.1a21.89,21.89,0,0,1-43.77.54c0-.19,0-.35,0-.54V203.81Z"/></svg>