<svg id="Calque_1" data-name="Calque 1" xmlns="http://www.w3.org/2000/svg" viewBox="0 0 425.2 425.2"><defs><style>.cls-1{fill-rule:evenodd;}</style></defs><title>GRAVOSIGN_PICTO_12</title><path class="cls-1" d="M266.21,216.33l.33,1.23a10.57,10.57,0,0,1,.09,3.82A12,12,0,0,1,256,231a12.54,12.54,0,0,1-12.79-6.68,5.76,5.76,0,0,1-.28-.68q-.66-2-1.25-4l-23-79.11-.78-1a4.07,4.07,0,0,0-3.93-.94,3.8,3.8,0,0,0-2.67,3,3.16,3.16,0,0,0,0,1.12q.18.84.42,1.67L249.22,280.1l0,.78a4.15,4.15,0,0,1-2.58,3.43l-.83.25-25,.52a7.85,7.85,0,0,0-6.54,3.76,4.17,4.17,0,0,0-.54,1.54,17.7,17.7,0,0,0-.17,2.41l-.13,89a12.56,12.56,0,0,1-2.4,5.95,14.56,14.56,0,0,1-14,5.42,13.64,13.64,0,0,1-11.25-10,6.47,6.47,0,0,1-.15-1q-.12-1.69-.12-3.38l-.11-89.06.07-.94-.06-.3a4,4,0,0,0-7.7-.69,3.18,3.18,0,0,0-.21.94q0,.75,0,1.51v91.12l-.22.8a14.54,14.54,0,0,1-3,5.28A16.75,16.75,0,0,1,156,391.72a15,15,0,0,1-9.77-11.64l-.16-2.14.07-87.83-.88-1.27a8.1,8.1,0,0,0-5.26-2.92l-.89-.06-25.74-.67L113,285a3.63,3.63,0,0,1-1.52-3.43q.22-.89.47-1.77l37.43-134.37a2.73,2.73,0,0,0-.12-1.85,4.7,4.7,0,0,0-.78-1.22,4.2,4.2,0,0,0-5.41-.69A3,3,0,0,0,142,143q-.5,1.28-.87,2.61l-16.8,59.48L118.69,225a1.63,1.63,0,0,1-.21.52,18,18,0,0,1-1.6,2.12,13.91,13.91,0,0,1-14.34,3.92,12.44,12.44,0,0,1-9.14-11.25l.1-1.89,26.43-90.74.6-1a46.08,46.08,0,0,1,38.11-21.79l42.19,0a42.32,42.32,0,0,1,37.7,20.74,16.3,16.3,0,0,1,1.4,3.29Z"/><path class="cls-1" d="M144.92,63.33A34,34,0,1,1,145,65Q144.92,64.17,144.92,63.33Z"/></svg>