<svg id="Calque_1" data-name="Calque 1" xmlns="http://www.w3.org/2000/svg" viewBox="0 0 425.2 425.2"><defs><style>.cls-1{fill:#1d1e1b;}</style></defs><title>GRAVOSIGN_PICTO_37</title><path class="cls-1" d="M221.4,140.43c8.64.34,19.14-5.07,25.19-7.36a184.19,184.19,0,0,0,17.62-7.4c4-2.15,10.45-6.29,12.56-11.95s9.3-21.55,12.83-27.3,8.88-12.51,10-15.14S304,62,311.7,59.49s17.15-1.14,20.72-.4,5.85.54,10.7,2.42S358,70.25,359,73.28s-.13,8.27,7.8,12a149.23,149.23,0,0,1,18.09,10.29c4.24,2.69,2.69,6.73.81,11.23s-3,10.09-4.84,12.11a11.28,11.28,0,0,1-6.66,3.09c-1.61.14-3.29-.54-6.39.34s-8.88-.34-14-1.08-9.55-2.15-12.11-1.14-9.35,9.22-12,14.73-3.3,10.36-5.52,15.87-4.91,9-4.57,11,.67,16.88-.07,21.26A114.24,114.24,0,0,0,318,197.18c-.34,6.12-4,17.69-7.87,24.22s-8.74,17.15-8.68,26.57-3.7,27-4.17,34,.47,23.61.2,30.07-.54,10,1.21,15.67,2.89,11.17,5.92,12.38,6.46,1.14,8.41,1.68,8.86,6.47,10.07,7.68,1,2.27.35,2.52a4.51,4.51,0,0,1-1.21.3,4.19,4.19,0,0,1-2.77,2.22,15.32,15.32,0,0,1-4.84-.3s-5.6,2-9.69,2-6-1.26-7.92-1.06-4.84.35-5.75-3.48-.05-5.65-1.31-7.82a16.47,16.47,0,0,1-2-7.62c.05-2.17-1.46-3.63-1.77-5.55s-.76-4.69-2.12-5.15-3.33-.25-4-2.47,1.21-3.28,1.51-6,1.16-8.83.55-13.57-2.46-19-3.06-25.34-.34-18.57-.4-21.66-.81-10.56-1.88-10.76-3.63,4.24-3.63,11.1-2.62,18.5-2.89,24.55-.34,23.07.54,28.66a42.18,42.18,0,0,1,.07,12.44c-.34,2.76,3,14.73,4.91,19.1s9.55,13.32,11.17,16.88,1.35,6.63-.77,7.48-4.24.3-5.1.71-2.72.86-5.6,0-6.76-.71-9.48-.76-4.39-.3-4.69-3.78-1.66-6-2-8.22.61-12.16-.25-13.72-1.77-2.37-2.07-4.84-2.32-5-3.28-6-.1-5.3-.76-6.56-.2-2,.45-5.55a26.43,26.43,0,0,0-.25-10.69c-.81-3.78.4-8.07-.61-11.15s-2-7.11-1.41-10.29-.2-5.45-.15-11.86a94.19,94.19,0,0,0-1.92-20.73c-1.51-6.61-3.08-11-3.94-11.45a181.88,181.88,0,0,1-22.58-7.2c-14.19-5.52-36.46-14.73-43.86-16.08s-15.4-3.57-16.88-2.76-3.77,5-3.57,9.22-2.89,14.33-6.73,19.57-13.59,16.61-20,23.37S116.63,283,113.94,294.52s-3.16,13.79-1.61,20.45,2.35,12.65,4,13.72,6.86.27,9.55,2.29,7.33,6.19,7.13,8.27-3.55,5.13-6,5.58-4.39-.5-5.4.05-4.54,1.16-8.48.2-7.32-1.87-8.58-5.2-.35-6-1.26-8.37a33.4,33.4,0,0,1-1.82-9.84c0-3-2.17-9.79-2.67-12.41s-.81-9.69-2.47-12.91-4.94-10.44-4.34-13,6.71-7.87,9.59-11.25,9.89-12.91,11.65-17.61,3.63-13.92,2.88-14.33-1.71,4.34-6.71,10.75S90.43,271,86.65,275s-10.71,10.23-15.42,17.83-13.39,24.08-15.67,32.62S52,338.1,54.07,339s6.12,3.43,7.33,4.78,3.36,5.11,4.78,6.46a1.87,1.87,0,0,1-.27,3.09c-.67.47-.67,2.83-3,3.63s-7.62.28-8.93.69a26.46,26.46,0,0,1-8.22.61c-2.62-.35-3-4.89-4.14-5.5s-4.79-2.42-3.83-5.6,3.58-8.43,4.84-14.43,3.8-18.08,5.15-27,.27-17.62,1.82-20.11,4.84-2.82,10-9.55S68.47,264.72,69.88,262s1.35-4,1.08-4.24-4,2.56-14.46,2.89-16.88-1.61-16.88-2,4.84-4.1,10.9-5.18,11.37-.94,17-6.32,8-8.54,9.49-15.4,2.89-23,1.68-33.33,2.72-33.5,13-41.37S115,136,140.88,134.86s45.1,3.13,56.3,3.94S212.76,140.1,221.4,140.43Z"/></svg>