<svg id="Calque_1" data-name="Calque 1" xmlns="http://www.w3.org/2000/svg" viewBox="0 0 425.2 425.2"><defs><style>.cls-1{fill-rule:evenodd;}</style></defs><title>GRAVOSIGN_PICTO_13</title><path class="cls-1" d="M280.43,127.75l.28,104.7a12.47,12.47,0,0,1-3.67,7.08,14.56,14.56,0,0,1-10.81,4,14.41,14.41,0,0,1-10-4.57,12.41,12.41,0,0,1-3.18-6.84L252.87,145l-2.13-.13a27.85,27.85,0,0,0-3.3,0l-2.13.13V378a16,16,0,0,1-6,10.49,18.68,18.68,0,0,1-17.11,3,17.36,17.36,0,0,1-9.74-7.58,15.52,15.52,0,0,1-1.87-4.88V235.84l-1.34-.6a7.36,7.36,0,0,0-6,0l-1.34.6V379.76a14.41,14.41,0,0,1-5.07,9.65,16.94,16.94,0,0,1-14,3.67,16.19,16.19,0,0,1-10-6.08,14,14,0,0,1-2.85-8.78V143.67l-2.31,0A13.37,13.37,0,0,0,165,144l-1.77.4,0,87.37a13.66,13.66,0,0,1-5.41,9.31,16.07,16.07,0,0,1-15.19,2.18,14.73,14.73,0,0,1-8-6.86,13.12,13.12,0,0,1-1.42-4.57l-.3-105.81a24.66,24.66,0,0,1,9.45-15.88,28.49,28.49,0,0,1,19.3-5.77q1.56.05,3.12,0l91.4-.07a25.3,25.3,0,0,1,17.72,7.47,21.8,21.8,0,0,1,6.3,15v.59Z"/><path class="cls-1" d="M171.68,63.46a34.11,34.11,0,1,1,0,1.68Q171.68,64.3,171.68,63.46Z"/></svg>