<svg id="Calque_1" data-name="Calque 1" xmlns="http://www.w3.org/2000/svg" viewBox="0 0 425.2 425.2"><defs><style>.cls-1{fill-rule:evenodd;}</style></defs><title>GRAVOSIGN_PICTO_49</title><path class="cls-1" d="M282.66,252.15a20.1,20.1,0,0,0,15.72-.27,10.75,10.75,0,0,1,6.51-1.53l104.23.13v-3.83l-103.18.13,4.32-3.69h94.54v-3.3L311,239.66v-3.83l87.73-.13-.13-3.69-87.33.13.13-3.69h78.43v-3.56H310.39L308,221.46h70.31V217.9H304.1l-6.68-4.09h67.69l.26-3.56H292.84l4.19-3.56h57.22v-3.43l-56,.13,1-4.09H345v-3.43L297,196l-2.36-3.83H329.5v-3.69l-37.58.13L289,184.92h21.74V181.1H286.69l-2.62-3.56H290l-.13-3.56h-7.73a4.94,4.94,0,0,1-4.08-4.12,3.32,3.32,0,0,1-.07-.39,27.94,27.94,0,0,1,2.19-6.07q0-.31.07-.62a11.19,11.19,0,0,0-3.42-9.19,42.1,42.1,0,0,0-14.06-7.39,8.06,8.06,0,0,0-6.52,1.48,17.46,17.46,0,0,1-4.74,1.71,3.8,3.8,0,0,1-2.83-4.08l.05-.38.05-.28a9.48,9.48,0,0,1,2.72-5.48,7.09,7.09,0,0,1,2.06-1.23q15.55.44,31.05,1.83a1.63,1.63,0,0,0,.05-3.26l-5.42-2.38a74.71,74.71,0,0,0-8.69-3.46,13.59,13.59,0,0,1-6.07-5.69,5.4,5.4,0,0,1,2.14-6.74l18.56-6.51a1.5,1.5,0,0,0,.94-.74,1.52,1.52,0,0,0-.7-2.09,1.49,1.49,0,0,0-1.19,0l-18.6-4.54A11.36,11.36,0,0,1,259,90.09q3.27-5.15,6.33-10.43a35,35,0,0,0,2-3.93l.07-.17a1.89,1.89,0,0,0-.35-2.5,1.86,1.86,0,0,0-2.5.09l-15.69,12.6a5.47,5.47,0,0,1-9.44-1l-11.91-19a2.21,2.21,0,0,0-4.25.33l0,.06a2.72,2.72,0,0,0-.1.29l-.73,21.2a5.74,5.74,0,0,1-1.75,4.86,5.65,5.65,0,0,1-4.93,1.45l-17.9-5.53a2.2,2.2,0,0,0-2.69.24,2.24,2.24,0,0,0-.45,2.69l.16.23,15.55,15.24a4.06,4.06,0,0,1,.15,4.89,4,4,0,0,1-4.64,1.44l-16.39-.29a1.74,1.74,0,0,0-.31,3.41l.23.08,19.41,6.88.41.32a4.57,4.57,0,0,1,.67,7.78l-15.78,6.87a1.63,1.63,0,0,0,0,2.29,1.6,1.6,0,0,0,2.28,0A16,16,0,0,0,199,140l18.14-2.79a3.78,3.78,0,0,1,3.2,1.65,3.84,3.84,0,0,1,.39,3.6q0,.49-.09,1a1.44,1.44,0,0,0,0,2.14,1.41,1.41,0,0,0,2.11-.26,3.38,3.38,0,0,0,1-.92,15.71,15.71,0,0,0,2.12-4.69,28,28,0,0,0,.73-5.93,35.71,35.71,0,0,1,1-7.8,24.78,24.78,0,0,1,2.07-5.13,4.53,4.53,0,0,1,2.87-2.94A69.06,69.06,0,0,1,247,112.47a3.6,3.6,0,0,1,3.4,2,28.46,28.46,0,0,1,5,9.06,4.57,4.57,0,0,1-.07,1.8Q253,131,250.23,136.49a4.61,4.61,0,0,1-4.52,1.35,28.92,28.92,0,0,0-4.64.67,3.57,3.57,0,0,0-.56,5.07l0,.06.41.61,6.24,6.51q1.45,1.14,3,2.15l-17.74,17.17a4.27,4.27,0,0,1-4.38-1.31l-.07-.11q-8.89-8-17-16.9a6,6,0,0,0-8.12.8q-6.32,3.75-12.35,8a17.84,17.84,0,0,1-4.16,4.71q-6.32,3.71-12.8,7.16l-.5.07a88,88,0,0,1-4.71-26.86,4.68,4.68,0,0,0,.48-.29,6.05,6.05,0,0,0,1.69-7.35q-1.77-3.59-3.41-7.25l-5.33-26.9a58.82,58.82,0,0,0-12.65,7.9q1.28,11.4,2.86,22.77a35.86,35.86,0,0,1-3.07,6.45q-.27,15.32.67,30.62a3,3,0,0,0,.67,2.58q-8.77-.24-17.54,0v3.63l19.58.16,1.72,3.47H110.36v3.94l45.73-.16,1.88,3.79H89.38v3.63l75.33.16.47,3.31H71.84v3.63h93.81l.63,3.94H61.34v3.47q52.77-.73,105.55,0l.63,3.47H48.66V214l119.49.16.63,3.47-131.39.16-.16,3.47H169.71l.47,3.79h-143l.16,3.63,143.45.16.78,3.31H18.75V236H172.38q.34,1.73.63,3.47l-156.92.16v3.79l131.1,0a1.15,1.15,0,0,1,.91.54,1.17,1.17,0,0,1,.1,1.06L104,260.44a11.82,11.82,0,0,0-8.52,14l5.33,9.52a3.18,3.18,0,0,1-2.25,3.76l-5.47,4.38a9.67,9.67,0,0,0-.8,9l26.85,30.49a3.38,3.38,0,0,1-.4,3.62l-7.13,10.93a9.68,9.68,0,0,0-.19,9.87,9.54,9.54,0,0,0,8.54,4.85l81.17-12.09a12.65,12.65,0,0,0,5-2.25,16.62,16.62,0,0,1,6.28-4.91q20.61-4.78,41.42-8.62a2.66,2.66,0,0,1,2.3,2.59l1.55,5.66.14.17a10.54,10.54,0,0,0,6.73,3.49q27.4-5.4,54.62-11.73a12.42,12.42,0,0,0,0-11.83l0-.06-44.48-62.76a5.91,5.91,0,0,1,2.1-5.55A5.81,5.81,0,0,1,282.66,252.15Zm-28.41-141a.73.73,0,0,1-.42.4,1.23,1.23,0,0,1-.49.06,4.36,4.36,0,0,1-.89-.17l-2.84-.9a7.13,7.13,0,0,0-2-.35,4.29,4.29,0,0,0-1.12.1,15,15,0,0,0-1.66.57l-16.4,6.22-2.82,7.13-.05.14a1.46,1.46,0,0,1-2.83.75,20.88,20.88,0,0,1-2-4.1l-.14-.37a6.86,6.86,0,0,1,.47-5.8,7.16,7.16,0,0,0,2.2-4.27,8.91,8.91,0,0,1,.56-6.25,13.73,13.73,0,0,1,2.54-3.35,21.92,21.92,0,0,1,25.52,1.64,11,11,0,0,1,2.29,5.85q.09.47.16.94a5.48,5.48,0,0,1,.06,1.27A1.5,1.5,0,0,1,254.25,111.2Zm-5-13.61a26.22,26.22,0,0,0-17.53-1.15,12.4,12.4,0,0,0-10.59,10.45l0,.21a62.76,62.76,0,0,1-2.86,9.52,10.76,10.76,0,0,0,.2,7.58,19.54,19.54,0,0,1,2.65,5.41,2.91,2.91,0,0,1,.39,3.33,2.86,2.86,0,0,1-3,1.47l-.08,0q-1.7.17-3.4.29a1.87,1.87,0,0,1-2.24-.07,1.91,1.91,0,0,1-.59-2.18,6,6,0,0,0,2.61-6.24,5.56,5.56,0,0,0-3.24-3.83l-6.69-4.1a1.21,1.21,0,0,1,.35-2.4l4.21-.81a7.4,7.4,0,0,0,4.57-3.63,7.49,7.49,0,0,0,.55-5.84L209.1,100l-.08-.1a15.67,15.67,0,0,0-5-4.09,1.27,1.27,0,0,1,2.16-.66L216.66,97l.24-.11a7.58,7.58,0,0,0,8.85-4.35,52.79,52.79,0,0,0,.8-5.74,19.11,19.11,0,0,0-.59-8.91,3.1,3.1,0,0,1,3.58-1.57q0,.19.09.38A29,29,0,0,1,233,82.2L236.24,86,238,88.19a9.69,9.69,0,0,0,13.9-1.4l1.92-1.15a4.13,4.13,0,0,1,2.7-2.79l.2.09a1.52,1.52,0,0,1,.66,1.28,32.22,32.22,0,0,0-2.53,6.91,13.87,13.87,0,0,0,.44,6A15,15,0,0,0,268.12,109h.08l6.34,1.31a1.32,1.32,0,0,1,.62,2.31L267,115.47a6.74,6.74,0,0,0-4.9,3.55,9.35,9.35,0,0,0,.69,8,24.3,24.3,0,0,0,3.52,3.4,12.51,12.51,0,0,1,2.79,1.69q.63.54,1.22,1.14a1.82,1.82,0,0,1,1.09,1.66,1.69,1.69,0,0,1-.13.77,78.76,78.76,0,0,0-8.37-1.06l-4.55-.45a1.86,1.86,0,0,1-2.1-.38,1.89,1.89,0,0,1-.38-2.12,52.62,52.62,0,0,0,1.18-24.7A12.78,12.78,0,0,0,249.23,97.59Zm-2.79,45.52a.09.09,0,0,1,0,.06l-.06,0h-.55v.55a.09.09,0,0,1,0,.06l-.06,0h-.64l-.06,0a.09.09,0,0,1,0-.06v-.55h-.55l-.06,0a.09.09,0,0,1,0-.06v-1.9a.09.09,0,0,1,0-.06l.06,0h1.92l.06,0a.09.09,0,0,1,0,.06Zm45.46,51.64a6,6,0,0,1,1.28,7.08,47.11,47.11,0,0,1-26.71,19.06,5,5,0,0,1-3.86-1.61,5.08,5.08,0,0,1-1.31-4,3.92,3.92,0,0,1,.64-.68l15.43-8.09h.08a2.73,2.73,0,0,0,1.89-1.47,2.77,2.77,0,0,0,0-2.41q-6.31-9-12.19-18.3a2.74,2.74,0,0,1-.47-3.84,86.64,86.64,0,0,0,6.76-7.16,2.26,2.26,0,0,1,3.22.38Q284,184.45,291.9,194.75Zm-19.54,4.79,2.46,3.62h-23.2l-1.95-3.72ZM256.86,196l2.57-3.41,8.8-.08,1.78,3.39Zm13.34,10.65L262.3,210l-5.75-.1-2.05-3.21Zm-36.26-34q6.93-5.52,13.38-11.61,3.48-3.6,6.65-7.51a24.16,24.16,0,0,1,4.28-3.89,10.22,10.22,0,0,1,1.54-.94l15.08,7q.31.36.61.73a17.71,17.71,0,0,1,1.87,2.83,6.06,6.06,0,0,1,.74,2.6,4.83,4.83,0,0,1-.5,2.17l-26.1,31.58-1,1.24-.73.89-.55,0a21.17,21.17,0,0,1-3.46-.75,17.81,17.81,0,0,0-2.61-.58,3.69,3.69,0,0,0-1.42.07l-33.39,14q-1.53.63-3.11,1.11a3.25,3.25,0,0,1-.63.12h-.17a2.42,2.42,0,0,1-1.48-.82,4.52,4.52,0,0,1-.83-1.56,18.28,18.28,0,0,1-1-5.09,8.72,8.72,0,0,1,1.36-5.35,3.91,3.91,0,0,1,.29-.36l0,0Zm-51.88,52.8-.7-3.89,11.41-.18-2.28,3.89ZM187.5,229l-1.4,3.36-2.63.35-.7-3.71Zm-6.67-10.61L180,214l17.88-.1-3,4.42Zm-1.23-7.78-.35-3.89,18.25.18,1.23,3.54Zm-1.05-7.07-.88-3.89,20.19-.18-.53,4.24Zm20-7.78-21.94.18-.53-3.71h25.8Zm-12.81-7.25,3.51-3.71,11.41.18,2.28,3.71Zm6.5-24.78L202.47,157a5.2,5.2,0,0,1,6.87-.24l15.92,14a3,3,0,0,1-.37,5.17L210.5,187.88a2.33,2.33,0,0,1-3.17,0l-14.45-18.78-.52-.68a3.08,3.08,0,0,1-.11-4.69Zm-18.74,13.09a160.41,160.41,0,0,1,14.3-8.12,3.44,3.44,0,0,1,2.84,1.68,12,12,0,0,1,2.61,4.77,3.26,3.26,0,0,1-1.65,3.58l-13.51,11.11a1.82,1.82,0,0,1-2,.28,1.85,1.85,0,0,1-1.06-1.69,20.61,20.61,0,0,1-.55-2.14l-1.36-5.81A3.38,3.38,0,0,1,173.52,176.78Zm-21.75-63.19,8.1-5.19,4.54,23L154,132.52Zm10.66,75.92-.09-.14L152,168.13q-.05-.42-.08-.84-.5-11.52.12-23a31.8,31.8,0,0,1,.32-3.3l0-.11a8.25,8.25,0,0,1,15.35-1.2,19.23,19.23,0,0,1-.06,2.2.09.09,0,0,1-.08.08l-10.17.63q-.15,4.51,0,9,0,.76.11,1.52A124.07,124.07,0,0,0,160,166.45a150.75,150.75,0,0,1,3.54,19.42l.22,3.3A1.63,1.63,0,0,1,162.42,189.51Zm-2.23-42.93a2.22,2.22,0,0,1,4.06.61l16,89.88a2.28,2.28,0,0,1-3.89.38Zm14.14,97.94,6.14-4.07-58.1,89.3-2.63-2.65Q146.17,285.23,174.34,244.52ZM97.77,271.35a6.75,6.75,0,0,1,4.78-7.26l61.79-20.86a2,2,0,0,1,2.61.14,2.08,2.08,0,0,1,.37,2.6l-62.95,36.71a1.21,1.21,0,0,1-1.14-1.26ZM94.89,298a5.26,5.26,0,0,1,1-4l27.92-18.5-22.12,31.65Zm9.77,11.63,24.92-37.31,7.72-4.77-4.74,7.43L107.81,312.6Zm4.91,5.66,35.11-52,6.85-4.42-39.14,59.59Zm7.55,8.84-2.63-3,43.7-65.9,7.56-5.36ZM205,342.74l-.1.13a4.84,4.84,0,0,1-3.82,2.82l-81,11.74a6.77,6.77,0,0,1-4.89-2.59,6.88,6.88,0,0,1-1.36-5.39q.06-.25.14-.49l87.45-133.55,37.5-15.94a14.69,14.69,0,0,1,2.47-.59,13.56,13.56,0,0,1,5,2l26.72,45.55a4.38,4.38,0,0,1,.17,6.06Zm112.66-18,0,.23a6.7,6.7,0,0,1-1.72,7.08l-51.14,9.67a6.2,6.2,0,0,1-5-4.64l-10.14-39.91a6,6,0,0,1,.37-6.91l19.64-25.91a2.45,2.45,0,0,1,1.61-1.92,2.42,2.42,0,0,1,2.44.51q.36.37.69.77Zm-42.83-81.41a23.91,23.91,0,0,1-3.79-6,12.89,12.89,0,0,1-.07-10.55,15,15,0,0,1,5.62-6.41,24.57,24.57,0,0,1,17.05-3.2,17.91,17.91,0,0,1,9.17,4.19l.37.37a26.35,26.35,0,0,1,3.46,5.08,18.55,18.55,0,0,1,2,5.27,6.64,6.64,0,0,1,0,2.75l-.21.79a19.83,19.83,0,0,1-12,13.79,15.11,15.11,0,0,1-3.92,1.07A20.5,20.5,0,0,1,274.79,243.34Z"/></svg>