<svg id="Calque_1" data-name="Calque 1" xmlns="http://www.w3.org/2000/svg" viewBox="0 0 425.2 425.2"><defs><style>.cls-1{fill:#1d1d1b;fill-rule:evenodd;}</style></defs><title>GRAVOSIGN_PICTO_21</title><path class="cls-1" d="M241.17,95.72a29.26,29.26,0,1,1,29.25-29.26A29.32,29.32,0,0,1,241.17,95.72Z"/><polygon class="cls-1" points="233.12 190.68 209.82 370.36 209.82 370.83 210.29 371.36 210.82 371.83 211.29 371.83 211.82 371.83 212.29 371.36 212.77 371.36 213.29 370.83 269.38 257.19 299.16 369.36 299.63 369.88 299.63 370.36 300.16 370.83 300.63 370.83 301.63 370.83 301.63 370.36 302.11 370.36 302.63 369.88 302.63 369.36 314.55 192.16 233.12 190.68"/><polygon class="cls-1" points="111.52 102.81 111.04 102.81 110.57 102.34 110.04 101.86 110.04 101.34 110.04 100.86 110.04 100.34 110.57 99.86 111.04 99.86 111.52 99.39 275.81 99.39 288.72 121.21 298.16 137.07 306.11 150.46 310.54 162.9 313.55 172.81 314.55 179.77 233.64 187.2 233.12 176.29 230.16 163.9 227.16 152.99 220.73 139.55 215.77 132.12 111.52 102.81"/><polygon class="cls-1" points="184.51 150.46 183.99 152.46 183.52 154.47 182.51 156.42 181.51 158.42 180.51 160.42 179.04 161.9 177.56 163.38 175.56 165.38 169.6 170.86 163.65 176.29 157.21 181.24 156.69 182.24 155.69 183.25 155.69 184.72 155.21 185.72 155.21 186.72 155.21 188.2 155.69 189.2 156.21 190.68 156.69 191.2 157.21 192.16 155.21 191.2 152.74 190.68 150.26 190.2 147.78 189.68 145.78 189.68 143.3 189.68 140.82 190.2 138.35 190.2 136.34 191.2 133.87 191.68 132.87 192.16 129.91 193.16 126.91 193.68 123.96 194.16 120.48 194.68 117.48 194.68 114 194.68 111.04 194.68 108.04 194.16 104.61 194.16 101.61 193.16 98.66 192.16 96.66 191.68 94.65 191.2 92.7 190.2 90.7 189.2 88.7 187.72 86.74 186.72 85.22 184.72 83.27 183.25 81.74 181.77 80.79 179.77 79.26 177.76 82.26 176.81 84.74 175.81 87.7 174.29 90.17 172.81 92.7 171.33 94.65 169.85 97.13 167.85 99.13 165.85 101.13 163.9 102.61 161.42 104.61 159.42 106.09 156.94 107.09 153.94 108.04 151.46 109.57 148.99 110.04 146.03 110.57 143.03 111.04 140.55 111.04 139.08 115.52 141.08 119.95 143.03 124.43 144.51 128.91 146.03 133.39 147.51 137.82 148.51 142.82 149.51 147.26 150.46 152.26 150.99 156.69 151.46 161.65 151.46 166.12 151.46 171.08 151.46 175.56 150.99 180.51 149.99 184.51 149.51 184.51 150.46"/><path class="cls-1" d="M194.9,209.07v-1l-.48-1-1-.48-.48-1-1-.52-1-.48H63.87l-1.48.48-.48.52-1,.48-.52,1-.48,1-.48,1v3l.48,1,.48,1,1,1,1,.48.52.48,1,.52h1L96.65,371.36H177L189.47,216.5h1l1-.52,1-.48,1-.48.52-1,.48-1,.48-1,.52-.48V210ZM127.43,285H110.57l-2-15.87h17.87Zm-1.52-24.3H107.57l-2.48-17.39H125Zm-3-44.17,1.48,18.34H104.09l-2.48-18.34Zm-47.65,0H92.7l2.48,18.34H78.79Zm5.48,26.78H96.13l2.53,17.39H84.22Zm5,25.82H99.61l2,15.87H88.7Zm5,24.3h11.91l2.48,16.91H94.18Zm5.43,26.83h10l2,16.87H99.61Zm9,42.69-4-18.39H109l2.48,18.39Zm6.43-69.52h16.92l1,16.91H113.52ZM115,320.23h14.91l1,16.87H117Zm5.48,42.69L118,344.53h13.87l1,18.39Zm30.78,0h-9l-1-18.39h10Zm0-26.83H140.35l-1-16.87h12.39Zm.47-25.78H138.82l-1-16.91h13.91Zm0-25.35H136.87l-1-15.87h15.87Zm0-24.3H135.34l-1-17.39h17.87Zm.52-25.83H133.87l-1.48-18.34h19.87ZM169.6,362.92H158.69l.48-18.39h11.91Zm2-26.83H159.17l.52-16.87h13.39Zm2-25.78H159.69l.48-16.91h14.91ZM176.08,285H160.17l.52-15.87H177Zm1.48-24.3H160.69l.48-17.39H179Zm2-25.83H161.17l.48-18.34h19.87Z"/></svg>