<svg id="Calque_1" data-name="Calque 1" xmlns="http://www.w3.org/2000/svg" viewBox="0 0 425.2 425.2"><defs><style>.cls-1{fill:#1d1d1b;fill-rule:evenodd;}</style></defs><title>GRAVOSIGN_PICTO_33</title><polygon class="cls-1" points="112.93 270.14 110.25 279.3 108.91 288.24 108.46 296.51 109.14 304.33 110.7 311.71 113.16 318.41 116.51 324.67 120.31 330.25 125 335.17 130.37 339.64 136.18 343.21 142.43 345.9 148.91 347.91 155.62 349.25 162.77 349.69 166.57 349.69 170.81 349.69 175.06 349.69 179.3 349.69 183.77 349.69 188.02 349.69 192.26 349.69 196.29 349.69 200.09 349.69 203.66 349.69 206.79 349.69 209.47 349.69 211.71 349.69 213.5 349.69 214.39 349.69 214.83 349.69 214.83 260.53 116.96 260.53 112.93 270.14"/><polygon class="cls-1" points="112.04 246.9 115.84 239.97 119.64 233.72 123.44 227.46 127.24 221.65 131.03 216.51 134.39 211.59 137.29 207.12 173.94 229.47 129.92 148.58 35.39 142.54 68.24 165.11 64.67 171.37 60.42 178.52 56.62 186.34 53.05 194.39 50.14 202.43 48.8 210.48 49.02 217.85 51.26 224.78 54.83 231.26 58.63 238.19 62.66 245.34 66.68 252.94 70.92 260.53 74.94 267.91 78.97 275.51 82.99 282.66 86.57 289.36 90.14 295.62 93.27 301.2 95.95 306.12 97.96 310.14 99.75 313.27 100.64 315.06 101.09 315.73 99.08 307.69 98.19 299.86 98.19 291.82 98.86 284 100.42 276.18 102.66 268.58 105.34 261.2 108.46 253.83 112.04 246.9"/><polygon class="cls-1" points="389.36 198.63 388.02 191.93 385.79 185.45 382.66 178.97 378.86 172.04 374.62 164.44 370.37 156.84 366.35 149.69 362.77 143.21 359.87 138.3 358.08 134.72 357.41 133.6 279.42 176.96 327.24 262.32 337.52 260.98 346.9 258.97 355.17 256.06 362.77 252.26 369.25 248.02 374.84 242.88 379.53 237.52 383.55 231.71 386.46 225.45 388.47 218.97 389.58 212.26 389.81 205.56 389.36 198.63"/><polygon class="cls-1" points="370.59 259.64 363.66 263.66 356.51 266.79 348.92 269.25 341.1 271.04 333.27 272.38 325.45 273.05 317.4 273.49 309.81 273.49 302.21 273.27 295.06 272.82 288.13 272.38 281.65 271.7 275.84 271.26 270.48 270.81 272.26 227.91 222.88 305.67 263.77 391.26 267.57 351.48 271.15 351.48 274.95 351.71 278.97 351.71 282.99 351.71 287.46 351.71 291.71 351.48 296.18 351.26 300.42 350.59 304.89 350.14 308.92 349.02 312.94 347.91 316.51 346.57 319.86 344.78 322.99 342.55 325.67 340.09 327.91 337.18 331.71 330.92 335.95 324.22 340.2 317.29 344.89 310.14 349.36 302.77 354.06 295.39 358.52 288.24 362.99 281.32 367.02 274.84 370.81 268.8 374.17 263.44 377.29 258.52 379.75 254.72 381.54 251.82 382.66 250.03 383.1 249.36 377.07 254.95 370.59 259.64"/><polygon class="cls-1" points="224.45 75.73 218.19 67.46 211.71 60.31 204.78 54.5 197.85 50.03 190.7 46.45 183.55 44.22 176.62 42.88 169.47 42.43 162.77 43.1 156.06 44.44 149.58 46.9 143.55 50.03 137.96 53.83 132.82 58.52 128.35 63.66 124.33 69.47 120.31 76.4 115.84 83.77 111.37 91.37 107.13 98.52 103.55 104.78 100.42 109.92 98.41 113.27 97.74 114.39 174.16 159.97 224.45 75.73"/><polygon class="cls-1" points="367.69 65.89 331.26 82.65 329.47 79.53 327.69 76.17 325.9 72.82 323.66 69.02 321.43 65.45 319.19 61.65 316.74 58.07 314.05 54.5 311.37 51.15 308.47 48.02 305.56 45.34 302.44 42.88 299.08 40.87 295.73 39.3 292.15 38.18 288.58 37.74 281.2 37.51 273.38 37.29 265.12 36.84 256.62 36.62 248.13 36.17 239.41 35.95 230.93 35.73 222.88 35.28 215.06 35.05 207.91 34.83 201.65 34.61 196.06 34.38 191.37 34.16 188.02 33.94 185.78 33.94 185.11 33.94 192.94 36.17 200.31 39.52 207.24 43.55 213.5 48.24 219.31 53.6 224.89 59.41 229.81 65.45 234.5 71.93 238.75 78.63 242.77 85.11 246.34 91.82 249.47 98.3 252.6 104.55 255.28 110.36 257.74 115.73 259.97 120.64 221.99 140.76 314.05 144.33 367.69 65.89"/></svg>