<svg id="Calque_1" data-name="Calque 1" xmlns="http://www.w3.org/2000/svg" viewBox="0 0 425.2 425.2"><defs><style>.cls-1{fill-rule:evenodd;}</style></defs><title>GRAVOSIGN_PICTO_15</title><path class="cls-1" d="M284.43,216.68l-1.74-54.38a18.12,18.12,0,0,0-4.3-5.36q-21.75-16.08-44.14-31.27A52.92,52.92,0,0,0,212,115.24l.41-13.4a32.46,32.46,0,1,0-27,.83,1.34,1.34,0,0,1-.06.63,50.35,50.35,0,0,1-.45,13.82,53.19,53.19,0,0,0-28.64,21q-14,18.23-28.68,35.87L86.87,192.41a10.29,10.29,0,1,0,6.74,19.43q24.25-9.59,48-20.41,14.54-19,30-37.34,1.68,35,.75,70-14.35,30-28.12,60.33l-9.48,56a10.68,10.68,0,0,0-4.28,20.92,217.35,217.35,0,0,0,32.64,3.3q6-35.89,11.21-71.91,11.26-24.56,24.76-48a4.89,4.89,0,0,1,8.08.36q13.57,25,27.58,49.73,17.56,15.5,33.56,32.64A10.5,10.5,0,1,0,283,342.34a190.61,190.61,0,0,0,21.62-24q-22.43-22.61-46.44-43.58-14.25-26.25-27.76-52.89l-2-70.31a248.3,248.3,0,0,1,34.81,22l.89,40.39a10.79,10.79,0,0,0,19,8.1C283.79,222.21,284.22,218.41,284.43,216.68Z"/></svg>