<svg id="Calque_1" data-name="Calque 1" xmlns="http://www.w3.org/2000/svg" viewBox="0 0 425.2 425.2"><defs><style>.cls-1{fill-rule:evenodd;}</style></defs><title>GRAVOSIGN_PICTO_20</title><path class="cls-1" d="M365.74,220.94A56.87,56.87,0,0,0,311,206.82L297.88,177l3.93-6.48h11.57a23.35,23.35,0,0,0,2.64-.22,5.05,5.05,0,0,0,4.56-5.2,39,39,0,0,0-.91-5.12,3.9,3.9,0,0,0-3.77-2.88q-23.36-1-46.74-.14a3.5,3.5,0,0,0-2.23,6.27,19.38,19.38,0,0,0,5.92,2.39l9.64,1.87a1.41,1.41,0,0,1,1.18,1.72,35.76,35.76,0,0,1-1.36,5.23H175.73a35.32,35.32,0,0,0,1.32-10.22q-.2-3.83-.69-7.63l39.14-.05H216a6.63,6.63,0,0,0,.77-13.24h-.28l-46.35.08a56.65,56.65,0,0,0-8.76.93l-.29.06a6.6,6.6,0,0,0-4.41,10.75q.9,1.58,1.92,3.09a39.29,39.29,0,0,1,2.16,3.62,10.07,10.07,0,0,1-1.27,10.54L137,210.56a55.68,55.68,0,1,0,12.12,7.17l6.54-8.77,60.83,46.66a23.07,23.07,0,0,0,44.4,12.46l9,0a121.65,121.65,0,0,0,6.5,18.66A54.19,54.19,0,0,0,304.72,312a55.62,55.62,0,0,0,61-91.09ZM153.22,277.29a40.17,40.17,0,0,1-40.7,24.84l-.29,0a40.45,40.45,0,1,1,17.22-78.21l-18.17,33.42a6.62,6.62,0,1,0,10.51,8l19.72-34.26A40.17,40.17,0,0,1,153.22,277.29ZM245,268.71a9.24,9.24,0,1,1,2.71-6.54A9.25,9.25,0,0,1,245,268.71Zm.12-30.36A32.1,32.1,0,0,0,224.47,243l-61.66-47.2,4.09-6.59H272.43Zm24.43,14.44h-9.58l-3.61-4.67,30.92-54.52L297,212.34A64.77,64.77,0,0,0,269.52,252.8Zm34.16-24,10.79,24H287.64A23.53,23.53,0,0,1,303.68,228.83Zm63.53,39.67-.06.3a40.2,40.2,0,0,1-79.1-.75h31.3a10.94,10.94,0,0,0,12-15.65L319.08,222a39.54,39.54,0,0,1,48.13,46.47Z"/></svg>