<svg id="Calque_1" data-name="Calque 1" xmlns="http://www.w3.org/2000/svg" viewBox="0 0 425.2 425.2"><defs><style>.cls-1{fill-rule:evenodd;}</style></defs><title>GRAVOSIGN_PICTO_61</title><path class="cls-1" d="M182.81,279.76v28.49c-3.11.31-6.29.48-9.51.48a96.13,96.13,0,1,1,0-192.26c3.21,0,6.39.17,9.51.48v28.49a67.26,67.26,0,0,0-9.51-.68,67.85,67.85,0,1,0,0,135.69A67.23,67.23,0,0,0,182.81,279.76Z"/><path class="cls-1" d="M272.27,197.93h55.54V227.3H272.27a67.78,67.78,0,0,0,75.78,52.46v28.49c-3.15.31-6.33.48-9.54.48a96.13,96.13,0,1,1,0-192.26c3.21,0,6.39.17,9.54.48v28.49a67.76,67.76,0,0,0-75.78,52.49Z"/></svg>