<svg id="Calque_1" data-name="Calque 1" xmlns="http://www.w3.org/2000/svg" viewBox="0 0 425.2 425.2"><defs><style>.cls-1{fill-rule:evenodd;}</style></defs><title>GRAVOSIGN_PICTO_11</title><path class="cls-1" d="M189.91,273.17H134.46q-1.53,0-3.05-.14a9.61,9.61,0,0,1-1.61-.29,18.55,18.55,0,0,1-12.65-13.18,22.74,22.74,0,0,1-.81-8.48,94,94,0,0,0,.19-10.07l-.08-121.56a39,39,0,0,1,.33-5.93,21.36,21.36,0,0,1,11.89-16.28,17.32,17.32,0,0,1,19.85,4.38,23.31,23.31,0,0,1,6.07,15.22q0,1.52,0,3,0,.93,0,1.85v28.49l57.58-.07q1.4,0,2.79.09a10.66,10.66,0,0,1,1.42.19A19,19,0,0,1,230,162.86a23.11,23.11,0,0,1-4.62,23.85,17.82,17.82,0,0,1-7.34,4.6,10.43,10.43,0,0,1-1.86.41,21.94,21.94,0,0,1-2.75.17l-59,0,0,46.2h37.79l2.11,0a17.23,17.23,0,0,1,11.5,5.38l1.48,1.72,53.76,61.07,21.06-24.08q1.12-1.28,2.33-2.46a8.11,8.11,0,0,1,1.14-.93,12.55,12.55,0,0,1,16,1.48,17.52,17.52,0,0,1,2.54,21.33,11.12,11.12,0,0,1-.78,1.12q-1,1.28-2.09,2.51l-41.7,47.69Z"/><path class="cls-1" d="M77.65,335.35a88.94,88.94,0,0,1,30-147l-.35,39A56.08,56.08,0,1,0,195.55,293l23.76,25.86A89.92,89.92,0,0,1,77.65,335.35Z"/><path class="cls-1" d="M103.92,49.42a34.06,34.06,0,1,1,0,1.67Q103.93,50.26,103.92,49.42Z"/></svg>