<svg id="Calque_1" data-name="Calque 1" xmlns="http://www.w3.org/2000/svg" viewBox="0 0 425.2 425.2"><defs><style>.cls-1{fill-rule:evenodd;}</style></defs><title>GRAVOSIGN_PICTO_47</title><path class="cls-1" d="M322.07,261.25c1,8.07-6.72,14.23-12.77,13.06-7-1.35-11.31-8.87-8.63-16.21s10.46-10,16.39-5.81A12.52,12.52,0,0,1,322.07,261.25ZM113,259.46a13,13,0,0,1-2.88,11.48,10.58,10.58,0,0,1-13.76,1.62,12.59,12.59,0,0,1-5-12.47c1.21-5.15,4.48-8.66,9.25-9.54S111.59,253.14,113,259.46Zm167.54-.91c-2.42,18.81,11.8,34.67,26.52,36.83,11.3,1.66,23.11-4.18,29.41-14.31,10.25-16.48,5.15-39.08-11.64-48.21-14.52-7.89-32.1-2.3-40.54,13.37A38.88,38.88,0,0,0,280.53,258.55ZM71.66,261.8c-.91,11.18,6.38,23.06,13.43,28,13,9.19,30.19,7.45,40.66-6.08,12.48-16.12,8.43-39.67-8.13-50A28.86,28.86,0,0,0,80,239.74C74.22,246.48,72.44,252.19,71.66,261.8Zm20.78-70.49c-1.52-.22-1.45-.93-1.34-2.26.15-1.82,9.08-23.58,9.08-23.58h26.2v25.93H93.91A7.88,7.88,0,0,1,92.44,191.31ZM91,168.68,82.2,190.1c-.33.8-.4.91-.77,1.08-1.44.67-5,.16-5.61-.19-.44-.26-.62-.6-.54-1.33a3.9,3.9,0,0,1,.41-1.26L84.1,168a4.77,4.77,0,0,1,.7-1.34c1.16-1.58,4.43-1.69,6-.76.46.26.64.64.55,1.47A4,4,0,0,1,91,168.68Zm181.15,66.2H144.54a4.77,4.77,0,0,1-1.51-.15,2.63,2.63,0,0,1-1.86-1.42,2.27,2.27,0,0,1-.28-1.48V152.23H94.24a8.59,8.59,0,0,0-1.8.14,14.14,14.14,0,0,0-8,5,20.65,20.65,0,0,0-2.38,4.32c-4.42,10.21-12.83,29.63-13.26,29.84-.89.45-1.83.55-3,1.08-4,1.83-6,4.83-7.66,9.23a6.45,6.45,0,0,0-.49,1.86l-6.34,42.37a2.36,2.36,0,0,1-.77,1.66,9.25,9.25,0,0,0-2,2.58c-.51,1.64,0,14,0,14H66.91s.19-4.35.54-7.56c2.08-18.82,19.42-34.26,38.17-32.14,13.49,1.52,23.16,9.76,28.77,22.28a35.7,35.7,0,0,1,2.38,7.7c.38,3-.57,8.64,2.08,9.59a3,3,0,0,0,1.28.14h131.5a4.21,4.21,0,0,0,1.68-.24c1.32-.41,1.77-.81,2.1-1.65,1-2.48,1.19-8.12,2.25-12.42a71.29,71.29,0,0,1,5-10.26c10.24-14.47,28.24-20,44.54-11.07,7.34,4,15,12.73,17,21.34,1.76,7.55.3,14,6,14.31,1.51.09,3.93,0,3.93,0a17,17,0,0,1,0-2.34,4.6,4.6,0,0,1,.88-2.25c1.12-1.82,1.33-2.44,3.13-3.51,3.86-2.3,16-7.06,16-7.06V234.88H349.24a4.77,4.77,0,0,1-1.51-.15,2.81,2.81,0,0,1-1.64-4.44,2.64,2.64,0,0,1,1.57-1,5.51,5.51,0,0,1,1.33-.08h27.88V129.54h-231v99.66H272.63a5.51,5.51,0,0,1,1.33.08,2.78,2.78,0,0,1,2.07,2.94c-.33,1.71-1,2.22-2.31,2.5A5.64,5.64,0,0,1,272.13,234.88Z"/></svg>