<svg id="Calque_1" data-name="Calque 1" xmlns="http://www.w3.org/2000/svg" viewBox="0 0 425.2 425.2"><defs><style>.cls-1{fill-rule:evenodd;}</style></defs><title>GRAVOSIGN_PICTO_14</title><path class="cls-1" d="M240.06,273,258,380.13h20.78L304.39,273h16.93a4.81,4.81,0,0,0,.15-.87l0-.73-27.4-127q-.17-.77-.31-1.56a3.77,3.77,0,0,1,0-1,3.4,3.4,0,0,1,2-2.85,2.53,2.53,0,0,1,2.87.88l.57,1,16.8,74q.43,1.89.91,3.76a6.36,6.36,0,0,0,.2.64c1.78,4.4,5.52,6.9,9.36,6.25,3.87-.45,7-4.13,7.79-9a12.6,12.6,0,0,0-.07-3.58l-.24-1.15-19.22-81.89a17.77,17.77,0,0,0-1-3.08c-5.75-12.41-16.31-19.84-27.58-19.4l-30.87,0c-11.39.33-21.88,8-27.88,20.39l-.44,1-19.33,84.89-.08,1.77c.23,5,2.92,9.21,6.69,10.53,3.76,1.47,7.84,0,10.49-3.67a17.13,17.13,0,0,0,1.17-2,1.79,1.79,0,0,0,.16-.49l4.09-18.6,12.29-55.64q.27-1.24.63-2.44a2.75,2.75,0,0,1,.82-1.29,2.61,2.61,0,0,1,4,.64,4.69,4.69,0,0,1,.57,1.14,3.22,3.22,0,0,1,.09,1.73L221,271.08q-.18.83-.34,1.66,0,.13,0,.26Z"/><path class="cls-1" d="M242.41,69q0,.68,0,1.36a27.59,27.59,0,1,0,0-1.36Z"/><path class="cls-1" d="M154.44,146.94q.71,0,1.42,0l1.55.13.13,86.77a14.69,14.69,0,0,0,2.32,6.81,9.6,9.6,0,0,0,7.28,4.55c2.92.2,5.77-1.24,7.88-4a14.38,14.38,0,0,0,2.68-7.05L177.49,130l-.14-.32V129a26.21,26.21,0,0,0-4.59-14.95c-3.42-4.7-8.06-7.37-12.91-7.43l-66.59.07q-1.14,0-2.27,0c-5-.49-10,1.55-14.06,5.74-3.71,3.85-6.18,9.52-6.89,15.81l.22,105.34a16.7,16.7,0,0,0,1,4.55,12.54,12.54,0,0,0,5.8,6.83c3.72,1.89,7.89,1.07,11.07-2.17a15.19,15.19,0,0,0,3.94-9.27l0-87,1.29-.39a7.42,7.42,0,0,1,.81-.2l12.48,237.83H138.4Z"/><path class="cls-1" d="M94.37,69a27.59,27.59,0,1,1,0,1.36Q94.37,69.66,94.37,69Z"/></svg>