<svg id="Calque_1" data-name="Calque 1" xmlns="http://www.w3.org/2000/svg" viewBox="0 0 425.2 425.2"><defs><style>.cls-1{fill-rule:evenodd;}</style></defs><title>GRAVOSIGN_PICTO_27</title><path class="cls-1" d="M267.45,164.12a30.18,30.18,0,0,1-9.25-9.23,54.46,54.46,0,0,1-5.95-12.45,73.63,73.63,0,0,1-3.17-13.91,108.83,108.83,0,0,1-.93-13.91A87.49,87.49,0,0,1,250,97.48a63.17,63.17,0,0,1,5.82-16.84,39.75,39.75,0,0,1,10.31-12.74,23.62,23.62,0,0,1,15.33-5.13,20.77,20.77,0,0,1,14.27,5.42,44.08,44.08,0,0,1,10,13.33,67.78,67.78,0,0,1,5.82,17.14,86.25,86.25,0,0,1,1.85,16.84A75.38,75.38,0,0,1,309,141.56a59.65,59.65,0,0,1-13.75,21.68V346.91a15.68,15.68,0,0,1-4.1,11.13,13.06,13.06,0,0,1-9.91,4.39,15.11,15.11,0,0,1-9.12-3.52,10.91,10.91,0,0,1-4.63-9.08ZM200.84,202.2A73.15,73.15,0,0,1,193,190a31.08,31.08,0,0,1-3.57-14.5V100a32.68,32.68,0,0,1,2.78-13.33,36.34,36.34,0,0,1,7.4-11,34.74,34.74,0,0,1,10.44-7.32,29.13,29.13,0,0,1,12.16-2.64h2.91A3.65,3.65,0,0,1,227.54,67a3.69,3.69,0,0,1,1.32,2.49V348.38a13.16,13.16,0,0,1-4.36,10,13.79,13.79,0,0,1-9.65,4.1,11,11,0,0,1-7.93-2.78,23.09,23.09,0,0,1-5-7.76,3.77,3.77,0,0,1-.79-1.46,5.25,5.25,0,0,1-.26-1.17ZM126,150.64a44,44,0,0,1-9.52-9.23,20.56,20.56,0,0,1-4.76-13V68a2.65,2.65,0,0,1,1.45-2.34,5.39,5.39,0,0,1,2.78-.88,3.68,3.68,0,0,1,2.64,1.46,4.71,4.71,0,0,1,1.32,3.22v48a7,7,0,0,0,.93,3.81,3.07,3.07,0,0,0,2.78,1.46,5.68,5.68,0,0,0,2.38-.88q1.59-.88,1.59-1.46V68.91a3.92,3.92,0,0,1,1.32-2.78,3.65,3.65,0,0,1,2.38-1.32,5.8,5.8,0,0,1,3.17,1,3.42,3.42,0,0,1,1.59,3.08v51.56q0,.59,1.32,1.17a5.56,5.56,0,0,1,1.85,1.17h.53a3.33,3.33,0,0,0,3.3-2.05,10.56,10.56,0,0,0,.93-4.39V69.5q0-4.69,4.23-4.69a5.23,5.23,0,0,1,2.64,1q1.59,1,1.59,2.2v51.85q0,.88,1.45,1.76t2,1.17a5,5,0,0,0,2.91-1.17,3.3,3.3,0,0,0,1.59-2.64V67.74q0-1.17,1.72-2.05a7,7,0,0,1,2.25-.88,6.74,6.74,0,0,1,2.12.73,2.35,2.35,0,0,1,1.59,2.2v60.05a19.37,19.37,0,0,1-3.44,11,63.58,63.58,0,0,1-7.14,8.93l-2.11,1.46-.53.59q-.53,50.68-.53,100.48,0,49.51-.53,99.6a19.27,19.27,0,0,1-5.16,9.23,12.07,12.07,0,0,1-8.59,3.37q-4.49,0-9.25-3.81a11.59,11.59,0,0,1-4.76-9.37Z"/></svg>