<svg id="Calque_1" data-name="Calque 1" xmlns="http://www.w3.org/2000/svg" viewBox="0 0 425.2 425.2"><defs><style>.cls-1{fill-rule:evenodd;}</style></defs><title>GRAVOSIGN_PICTO_43</title><path class="cls-1" d="M224.21,229.92l.42,18.31s15.42-5.13,25-9.43c27.45-12.33,49.39-52.46,35.12-82.21-6.52-13.6-19.14-20-34.38-24.66-26-8-82.07-10.46-87.81-45.57-2.51-15.34,4.35-34.18,19.67-38.13,8.3-2.14,23.45.83,29.28,7.47,3.69,4.21,7.94,12.83,7.94,12.83S213,74,210.78,77.37c-3.82,5.88,2.13,17.27,6,22.42,7.57,10.13,13,13.5,17.56,6,1.82-3,3-6.38,4.11-12,1.45-7,2.95-17.44,2.95-17.44s-7.86-4.66-10.79-8.34a9.56,9.56,0,0,1-1.87-4.11c-2.16-9-3.06-13.55-10.09-19.8-15.61-13.89-42.77-9.37-56.8,1.49-19.46,15.08-21,42.49-7.85,62.4,7.57,11.45,20.59,21.06,32.88,26.16,15.37,6.37,44.62,12.3,56.42,17.56,18.13,8.08,23.22,21,17.19,41.48-3,10.22-11.94,25.44-22.42,31A126.4,126.4,0,0,1,224.21,229.92Z"/><path class="cls-1" d="M206.67,227.59l-.75,58.29h14.2V226.75s7.1-2.31,11.58-4.39c15.25-7.09,27.09-33,25-47.1-.51-3.51-2.45-11.16-5.76-13.79-.87-.69-1.24-.76-3.66-.7-30.05.82-53,1.54-90.17,1.79-42.08.29-102.34,0-102.34,0a64.58,64.58,0,0,0,9.86,7.85c2.39,1.45,18.81,4.56,26.9,6,20.29,3.57,45.56,28.77,69.13,40.73,8.26,4.19,26.52,10.13,37.59,10.46C201.93,227.69,206.67,227.59,206.67,227.59Z"/><path class="cls-1" d="M370.33,161.07l-78.47-.75s0,.76,0,1.49c.05,13.5,2,15.78.75,24.18-1.08,7.26-4.48,19.16-4.48,19.16s14.5-12.67,22.79-18.68a83.15,83.15,0,0,1,27.28-12.33c8-1.84,17.89-2.46,23.91-5.23,1-.46,7.88-4,8.22-6.05A7.48,7.48,0,0,0,370.33,161.07Z"/><path class="cls-1" d="M135.67,389.75,295.1,388s-4.13-2.38-6.6-3.52a13.41,13.41,0,0,0-3.36-1.12c-6.59-1.31-19.79-1.3-26.16-3.74-3.94-1.51-6-4-9.72-5.23-6-2.09-16.85-1.27-22.42-3.74-3.58-1.58-6.54-4.62-6.73-9.19a93.15,93.15,0,0,1,.79-11.5,37.58,37.58,0,0,0-9.61-2.85,25.48,25.48,0,0,0-5.38,0l-1.64,21.32S167.79,381.34,157.19,383c-10.81,1.73-11.84.66-18.53,3.36a3.86,3.86,0,0,0-2.24,1.87C136.05,388.89,135.67,389.75,135.67,389.75Z"/><path class="cls-1" d="M220.12,330.72V308.3H205.17s.33,7.91.21,11.91c-.12,4.25-.74,4.07-.46,4.78.48,1.22,7.55,5.5,9.71,5.73A32.89,32.89,0,0,0,220.12,330.72Z"/><path class="cls-1" d="M251.51,350.84v.8h7A117.59,117.59,0,0,0,250,343a8.11,8.11,0,0,0-2.17-1.37,20,20,0,0,0-3.81-1.12c-11.61-2.78-38.48-6.11-46-15.81A20.86,20.86,0,0,1,194,314.12c-.18-2.75,0-6.6,0-6.6s-11.42-7.48-14.57-7.45S175.18,312.87,176,317c2.44,11.91,15.44,22.87,26.9,25.27,11.28,2.37,33,1.59,39.61,3.74a34,34,0,0,1,6.63,3.06C251.27,350.31,251.51,350.48,251.51,350.84Z"/><path class="cls-1" d="M224.6,267.19l7.54-.55c2.41-.18,2.82-.15,4.08.27,6.6,2.23,6.86,9.35,3.7,14.48-6.25,10.13-33.37,10.18-43.72,4.11-11.06-6.49-12.31-17.83-6.35-28a12.8,12.8,0,0,1,6-5.23c2.31-1.08,5.61-2.24,5.61-2.24l.59-10.47a19.14,19.14,0,0,0,0-4.32c-.35-3-1.73-4.53-2.35-4.64-4.49-.81-14.91,5-18.38,7.85-12.76,10.33-18.72,25.59-13.83,38.49,5.1,13.43,11.44,18.16,26.16,24.66,17.54,7.75,34.47,5.77,54.93-4.11,12.53-6.05,24.82-18.54,19.8-33.26-4.65-13.64-31.94-14.07-43-7.85-1,.56-1.49,1.09-1.5,3.21A70.92,70.92,0,0,0,224.6,267.19Z"/></svg>