<svg id="Calque_1" data-name="Calque 1" xmlns="http://www.w3.org/2000/svg" viewBox="0 0 425.2 425.2"><defs><style>.cls-1{fill-rule:evenodd;}</style></defs><title>GRAVOSIGN_PICTO_51</title><path class="cls-1" d="M124.24,249.5q30.19,62,30.19,86.6-3.85,44-33.45,44-30.19-9.84-30.19-44,1.78-26.24,32-86.6ZM178.41,45.14h6.22q17.76,4.26,17.76,15.75h3q5.33-15.75,17.47-15.75h6.51q8.88,0,18.95,14.11,9.18-14.11,17.47-14.11h5q19.83,0,22.2,26.57,0,18-24,24.6-8.58-1-22.2-16.07l-4.74,8.86v44.28H283.5v-7.22Q287.64,98,309,98q26.94,4.92,26.94,30.18v81Q332,239,311.92,239h-3q-25.46-3.94-25.46-28.21v-6.89H175.15q-18.95,0-18.95,21v10.5l-4.74,5.25H92.56l-3.26-3.28V224.9q0-64,39.67-82.66,16-8.86,68.38-8.86h14.5V91.06L205.35,78.6h-3q0,11.81-20.72,17.71-22.5-6.23-22.5-23V66.13Q163,45.14,178.41,45.14Z"/></svg>