<svg id="Calque_1" data-name="Calque 1" xmlns="http://www.w3.org/2000/svg" viewBox="0 0 425.2 425.2"><defs><style>.cls-1{fill-rule:evenodd;}</style></defs><title>GRAVOSIGN_PICTO_32</title><path class="cls-1" d="M237.71,269.18q0,11.4,3.06,14.4t11.9,3h8.69v21.67H171.71V286.57h8.55q9.12,0,12.26-3.28t3.14-14.11V209.6q0-11-3.14-14.25t-12.26-3.28h-8.55V170.4h66ZM191.38,134.77A22.63,22.63,0,0,1,214,112.1a22.08,22.08,0,0,1,16.11,6.63,21.73,21.73,0,0,1,6.7,16,22.42,22.42,0,0,1-6.63,16.39,21.89,21.89,0,0,1-16.18,6.7,21.66,21.66,0,0,1-16.11-6.7A22.54,22.54,0,0,1,191.38,134.77Zm21.22-58.7A136.53,136.53,0,1,0,349.13,212.6,136.55,136.55,0,0,0,212.6,76.07Z"/></svg>