<svg id="Calque_1" data-name="Calque 1" xmlns="http://www.w3.org/2000/svg" viewBox="0 0 425.2 425.2"><defs><style>.cls-1{fill-rule:evenodd;}</style></defs><title>GRAVOSIGN_PICTO_28</title><path class="cls-1" d="M342.66,201.28a67.11,67.11,0,0,1-7.15-11.15,28.51,28.51,0,0,1-3.28-13.3V107.49a30,30,0,0,1,2.55-12.23,33.34,33.34,0,0,1,6.79-10.08,31.87,31.87,0,0,1,9.58-6.72A26.73,26.73,0,0,1,362.31,76H365a3.35,3.35,0,0,1,2.18,1.21,3.39,3.39,0,0,1,1.21,2.28V335.4a12.08,12.08,0,0,1-4,9.14,12.65,12.65,0,0,1-8.85,3.76,10.09,10.09,0,0,1-7.28-2.55,21.19,21.19,0,0,1-4.61-7.12,3.46,3.46,0,0,1-.73-1.34,4.81,4.81,0,0,1-.24-1.08Z"/><path class="cls-1" d="M69.93,154.84a40.36,40.36,0,0,1-8.73-8.47,18.86,18.86,0,0,1-4.37-12V79.05a2.43,2.43,0,0,1,1.33-2.15,4.94,4.94,0,0,1,2.55-.81,3.38,3.38,0,0,1,2.43,1.34,4.32,4.32,0,0,1,1.21,3v44.08A6.45,6.45,0,0,0,65.2,128a2.81,2.81,0,0,0,2.55,1.34,5.21,5.21,0,0,0,2.18-.81q1.45-.81,1.45-1.34V79.86a3.59,3.59,0,0,1,1.21-2.55,3.35,3.35,0,0,1,2.18-1.21,5.32,5.32,0,0,1,2.91.94,3.13,3.13,0,0,1,1.46,2.82v47.3q0,.54,1.21,1.08a5.1,5.1,0,0,1,1.7,1.08h.49a3.05,3.05,0,0,0,3-1.88,9.69,9.69,0,0,0,.85-4v-43q0-4.3,3.88-4.3a4.8,4.8,0,0,1,2.43.94q1.45.94,1.45,2v47.57q0,.81,1.33,1.61t1.82,1.08a4.63,4.63,0,0,0,2.67-1.08,3,3,0,0,0,1.45-2.42v-47q0-1.08,1.58-1.88a6.38,6.38,0,0,1,2.06-.81,6.18,6.18,0,0,1,1.94.67,2.15,2.15,0,0,1,1.45,2v55.1A17.77,17.77,0,0,1,105.34,144a58.33,58.33,0,0,1-6.55,8.2l-1.94,1.34-.49.54q-.49,46.5-.49,92.19,0,45.42-.48,91.38a17.68,17.68,0,0,1-4.73,8.47,11.07,11.07,0,0,1-7.88,3.09q-4.12,0-8.49-3.49a10.63,10.63,0,0,1-4.37-8.6Z"/><path d="M218.95,150.19a73.22,73.22,0,1,0,73.22,73.22A73.3,73.3,0,0,0,218.95,150.19Z"/><path d="M218.95,113.27A110.14,110.14,0,1,0,329.09,223.41,110.14,110.14,0,0,0,218.95,113.27Zm0,191.76a81.62,81.62,0,1,1,81.62-81.62A81.71,81.71,0,0,1,218.95,305Z"/></svg>