<svg id="Calque_1" data-name="Calque 1" xmlns="http://www.w3.org/2000/svg" viewBox="0 0 425.2 425.2"><defs><style>.cls-1{fill-rule:evenodd;}</style></defs><title>GRAVOSIGN_PICTO_44</title><path class="cls-1" d="M211.92,349.43a22.4,22.4,0,0,0,14.5-5.14q6.35-5.14,6.35-14.09a18.31,18.31,0,0,0-5.89-13.41A19.31,19.31,0,0,0,212.83,311q-9.07,0-14.73,5.37a18.24,18.24,0,0,0-5.67,13.86q0,8.94,5.44,14.09T211.92,349.43Zm1.81,22.36a80.18,80.18,0,0,1-29.92-5.59,79.15,79.15,0,0,1-24.7-15.43A71.43,71.43,0,0,1,136.23,298a73.6,73.6,0,0,1,10.2-38.23,76.53,76.53,0,0,1,27.88-27.5V82L202.4,55.2a3.66,3.66,0,0,1,2.72-1.79h5q.91,0,1.81,1.79l33.54,32.2-18.13,18.78,18.13,18.33-17.22,16.54v2.24L245,159.84l-18.13,18.78,24,22.81v30.85a96,96,0,0,1,27.65,27.95Q289,276.54,289,298a70.37,70.37,0,0,1-5.89,28.62,75.56,75.56,0,0,1-69.35,45.16Z"/></svg>