<svg id="Calque_1" data-name="Calque 1" xmlns="http://www.w3.org/2000/svg" viewBox="0 0 425.2 425.2"><defs><style>.cls-1{fill-rule:evenodd;}</style></defs><title>GRAVOSIGN_PICTO_42</title><path class="cls-1" d="M261.37,81.57c0,14.71-5.95,25.28-20.13,30a28.76,28.76,0,0,1-37.46-31.23c1.72-13.19,10.2-21.55,22.92-24.68a28.35,28.35,0,0,1,28.23,9.78C257.53,68.71,261.37,76.45,261.37,81.57Z"/><path class="cls-1" d="M61.14,267.28S66.3,248.07,71,233.74c1.85-5.6,16.87-38.15,20.13-43.6,18.33-30.71,42.08-61.8,75.19-83.86,2.53-1.69,5.33-3.49,7.84-5.09,4.22-2.69,7.86-4.58,12.41-.49l91.34,82.13a13.56,13.56,0,0,1-11,15.68,12.87,12.87,0,0,1-3.18.17L209.56,152c-4.38-.75-4.13-2.89-7.77.52l-36.7,34.37c-1.67,1.56-2.53,3.16-1.26,9.71l13.69,70.67H152.36v95.59a16.93,16.93,0,0,1-23.53,4.43,16.11,16.11,0,0,1-4.43-4.43V267.28H113.23v95.59a16.56,16.56,0,0,1-23,4.39,15.76,15.76,0,0,1-4.39-4.39V267.28Z"/><path class="cls-1" d="M245.16,225.35l28.75,2.09a9.41,9.41,0,0,0,3,0c7.46-1.35,7-13.52,8.25-20a6.08,6.08,0,0,1,1.68-3.35c1-1.16,2.65-2.72,2.65-2.72s11.77,29.39,13.84,38.5C308,260.77,289,272,264.73,272.31c-23.76.34-56.18-13.45-54.79-35.78A33.62,33.62,0,0,1,213,225.35c4.22-8.82,15-23.78,15-23.78s-11.08-14-11.9-17.21c0-.11-.42-4.39.84-6a7.47,7.47,0,0,1,.5-.56s3.9,2.51,7,4.75c11.47,8.19,20.94,19.72,22.92,32.48a7.32,7.32,0,0,1,0,2.68A64,64,0,0,1,245.16,225.35Z"/><path class="cls-1" d="M362.56,230.38c1.22,21.4-21.51,34.72-38.85,25.16-14.92-8.23-19.25-29.16-6.43-42.21,12.47-12.68,35.51-8.95,42.77,7.55A31.37,31.37,0,0,1,362.56,230.38Z"/><path class="cls-1" d="M358.09,262.3A17,17,0,0,1,360,286.22a16.1,16.1,0,0,1-1.93,1.93s-13.12,5-23.48,8.2c-31.79,9.87-65.45,9.73-98.11,5a99.09,99.09,0,0,1-14.81-3.07c-11.35-3.24-30.19-10.3-30.19-10.3a16.74,16.74,0,0,1,1.75-23.61l.55-.45s16.49,6.14,28.45,9.77c22.26,6.75,47.51,6.74,70.21,6.43,4.33-.06,32-4.79,36-6.15C341,269.68,358.09,262.3,358.09,262.3Z"/></svg>