<svg id="Calque_1" data-name="Calque 1" xmlns="http://www.w3.org/2000/svg" viewBox="0 0 425.2 425.2"><defs><style>.cls-1{fill-rule:evenodd;}</style></defs><title>GRAVOSIGN_PICTO_17</title><polygon class="cls-1" points="152.3 324.67 151.62 296.37 191.43 296.44 203.1 296.46 203.1 287.3 203.1 268.22 218.37 268.22 252.71 268.22 252.71 259.83 252.71 240.75 267.97 240.75 301.55 240.75 301.55 231.97 301.55 212.89 316.81 212.89 365.65 212.89 365.65 231.97 316.81 231.97 316.81 240.75 316.81 259.64 267.97 259.83 267.59 287.3 252.71 287.3 218.37 287.3 218.37 296.46 218.37 315.15 169.53 315.54 169.53 328.6 169.53 343.77 161.1 343.77 119.92 343.77 119.54 371.25 104.66 371.25 70.32 371.25 55.05 371.25 55.05 352.17 70.32 352.17 104.66 352.17 104.66 343.77 104.66 324.69 152.3 324.67"/><polygon class="cls-1" points="240.92 117.3 247.23 110.99 275.75 139.51 282.06 145.82 275.75 152.13 247.23 180.65 240.92 174.34 260.52 154.77 265.96 150.28 213.67 150.28 213.67 141.36 265.96 141.36 260.39 136.74 240.92 117.3"/><path class="cls-1" d="M102.88,115.69a208.79,208.79,0,0,1,77.69.87,244.36,244.36,0,0,1-2.41,75.72,21.34,21.34,0,0,1-12.83,14.61l-1.17-24.29-2.48-.27-7.74,94.12-27.48.72-4.07-94.54-2-.13-3,23.6A30.07,30.07,0,0,1,105,189.66,362.84,362.84,0,0,1,102.88,115.69Z"/><circle cx="139.26" cy="84.99" r="17.86" transform="matrix(1, -0.03, 0.03, 1, -2.18, 3.68)"/></svg>