<svg id="Calque_1" data-name="Calque 1" xmlns="http://www.w3.org/2000/svg" viewBox="0 0 425.2 425.2"><defs><style>.cls-1{fill-rule:evenodd;}</style></defs><title>GRAVOSIGN_PICTO_60</title><path class="cls-1" d="M165.11,151.2q0-3.84-3.27-8.9a19.3,19.3,0,0,1-3.27-10.64q0-11.16,7.23-17.27A33.19,33.19,0,0,1,183,106.9V96.78a34.19,34.19,0,0,0-24.61,9.77q-10.15,9.77-10.15,25.12a21.26,21.26,0,0,0,1.2,7,21.26,21.26,0,0,1,1.2,7V146a95.5,95.5,0,0,0-24.78,4.54q-11.7,3.84-18.58,16-1.72,3.49-4,8.37a21.33,21.33,0,0,0-2.24,8.72v27.21h9.64V185a18.21,18.21,0,0,1,2.75-8.72,47,47,0,0,1,6.88-9.24,44.3,44.3,0,0,1,8.95-7.33,17.31,17.31,0,0,1,8.95-3h23.4a2.75,2.75,0,0,0,2.75-2.27A13,13,0,0,0,165.11,151.2Zm31.32-1a49.89,49.89,0,0,0,20-11.51q7.92-7.67,7.92-20.93a31.29,31.29,0,0,0-8.43-21.8,27.44,27.44,0,0,0-21.17-9.24V96.78a27.86,27.86,0,0,1,13.77,7Q214,109,214,118.06a20.52,20.52,0,0,1-5,13.6,19.38,19.38,0,0,1-12.56,7,16.12,16.12,0,0,1-3.79.35,18.86,18.86,0,0,0-4.3.52,9.53,9.53,0,0,0-3.79,1.74,4.38,4.38,0,0,0-1.55,3.66,11.67,11.67,0,0,0,1.2,5.23,11.67,11.67,0,0,1,1.2,5.23,26.51,26.51,0,0,1-2.41,9.94q-2.41,5.76-7.92,5.76H139.64a18.16,18.16,0,0,0-4.65,1.4,17.13,17.13,0,0,1-5,1.4,18.36,18.36,0,0,0-8.6,6.63,28.69,28.69,0,0,0-4,9.42,48.06,48.06,0,0,0-1.2,10.81v10.12h10q0-3.14-.17-7.15a37.75,37.75,0,0,1,.52-8,22.22,22.22,0,0,1,2.58-7.33,10.46,10.46,0,0,1,6-4.71,16.4,16.4,0,0,1,3.61-1.22l2.24-.52H177.5l4.82-2.44q8.95-3.84,11.36-12.21A71.84,71.84,0,0,0,196.42,150.16Zm-85.69,67.33h-9.64v31.4h9.64Zm15.49,0h-9.64v31.4h9.64Zm48.18.7h-41v30.7h11Zm152.46,0H236.69l-29.94,30.7H326.86ZM291.07,102.36,104.19,291.79h-.69l-1-1A59.45,59.45,0,0,1,96.28,281a170.5,170.5,0,0,1-13.77-33.66,130,130,0,0,1-4.82-35.76,134.26,134.26,0,0,1,39.75-95.93,137.1,137.1,0,0,1,43-28.61,132.69,132.69,0,0,1,52.48-10.47q41.64,0,76.75,24.07Q291.07,100.62,291.07,102.36ZM347.51,212.6a130.49,130.49,0,0,1-10.67,52.5,140.75,140.75,0,0,1-29.08,43.26,138.11,138.11,0,0,1-42.85,29.48,126.15,126.15,0,0,1-51.62,10.81A130.39,130.39,0,0,1,173,342.55a162.53,162.53,0,0,1-37.51-18,11.3,11.3,0,0,0-1.72-1.4q-1-.7-1-1v-.7L320.32,131a19.45,19.45,0,0,1,3.61,4.19q1.89,2.79,2.93,4.54a151.31,151.31,0,0,1,15.31,34.88A134.1,134.1,0,0,1,347.51,212.6Zm38.54.35a174.36,174.36,0,0,0-13.59-68.72,178.84,178.84,0,0,0-37-56A171.72,171.72,0,0,0,212.26,37.13a166.82,166.82,0,0,0-67.63,13.78A175.63,175.63,0,0,0,39.15,213.3a171.23,171.23,0,0,0,13.77,68.55,174.62,174.62,0,0,0,37.51,55.47,177.25,177.25,0,0,0,55.41,37.15,169,169,0,0,0,67.45,13.61,165.14,165.14,0,0,0,66.94-13.78,174.61,174.61,0,0,0,54.89-37.5,179.7,179.7,0,0,0,37.17-55.64A170.36,170.36,0,0,0,386.05,212.95Z"/></svg>