<svg id="Calque_1" data-name="Calque 1" xmlns="http://www.w3.org/2000/svg" viewBox="0 0 425.2 425.2"><defs><style>.cls-1{fill-rule:evenodd;}</style></defs><title>GRAVOSIGN_PICTO_57</title><path class="cls-1" d="M164.65,227.22q0,18.48,7.49,27.21a23.5,23.5,0,0,0,18.55,8.73,31.36,31.36,0,0,0,15.57-4.07,38.38,38.38,0,0,0,10.91-9.17Q224.9,241,230.5,224t5.6-31.72q0-16.44-7.64-25.25a24.44,24.44,0,0,0-19.28-8.8q-12.51,0-23.14,9.68T170,195.5Q164.65,213.4,164.65,227.22ZM322,287h31q-14.55,29.54-44.67,46.27-34.49,19.21-84.11,19.21-48,0-82.94-16.22T89.28,288.41a143.15,143.15,0,0,1-17-68.9,155.9,155.9,0,0,1,19.35-76.18q19.35-35.29,53-53T221.4,72.69q36.67,0,65.19,14.26t43.58,40.53a113.4,113.4,0,0,1,15.06,57.41q0,37.11-22.85,67.08-28.67,37.83-73.48,37.83-12.08,0-18.19-4.22a20.39,20.39,0,0,1-8.15-12.37Q205.4,289.79,183,289.79q-24.16,0-40.09-16.66T127,228.82a108.56,108.56,0,0,1,19.21-62.43q23.28-34.34,59.66-34.34,25.9,0,38.27,19.79l3.64-16.15h38.42L264.18,240q-2,9.89-2,12.81a7.82,7.82,0,0,0,1.67,5.46,5.25,5.25,0,0,0,4,1.82q7,0,18-8.44,14.84-11.06,24-29.68A86.32,86.32,0,0,0,319,183.42q0-35.8-25.9-59.88T220.82,99.46q-39.43,0-66.86,16.08a102.11,102.11,0,0,0-41.33,45.25,139.66,139.66,0,0,0-13.9,60.75q0,30.7,15.5,55.88t43.51,36.74q28,11.57,64.1,11.57,34.78,0,59.81-9.68T322,287Z"/></svg>