<svg id="Calque_1" data-name="Calque 1" xmlns="http://www.w3.org/2000/svg" viewBox="0 0 425.2 425.2"><defs><style>.cls-1{fill:#1d1d1b;fill-rule:evenodd;}</style></defs><title>GRAVOSIGN_PICTO_18</title><path class="cls-1" d="M259.32,60.2,259,58.25a13.92,13.92,0,0,0-4-7.56,18.08,18.08,0,0,0-13-4.86,17.46,17.46,0,0,0-17.14,12,30.76,30.76,0,0,0-1.33,13.1,20.78,20.78,0,0,0,4,10.69,18.07,18.07,0,0,0,30.88-4.55,25.52,25.52,0,0,0,.83-3.69h-8.36q-.32,1-.71,2a8.69,8.69,0,0,1-12.48,4.49,9.86,9.86,0,0,1-4.57-5.67,23.48,23.48,0,0,1-.88-9.15,18.33,18.33,0,0,1,1.54-6.21A9.4,9.4,0,0,1,246.19,54a7.74,7.74,0,0,1,3.94,4.18,14,14,0,0,1,.64,2Z"/><path class="cls-1" d="M201.41,378.08V96.74H228V378.08ZM359.36,171.53l.29.52.06,80.51a11.59,11.59,0,0,1-23-.25l-.11-79.75a17,17,0,0,0-2.17,0V364a14.19,14.19,0,0,1-28.1.87V256.16a3.44,3.44,0,0,0-3,0V365.33A13.07,13.07,0,0,1,277.21,364V171.7a7.47,7.47,0,0,0-1.55.2l0,80.15a12.41,12.41,0,0,1-24.69,0l-.2-81.26a20.94,20.94,0,0,1,22.52-18.17l65.84,0a19.07,19.07,0,0,1,20.2,18.89Zm-80.58-47.24A24.52,24.52,0,1,1,286,141.63,24.48,24.48,0,0,1,278.78,124.29ZM97,125.23a24.52,24.52,0,1,1,7.19,17.34A24.54,24.54,0,0,1,97,125.23ZM186.6,240.88a10.51,10.51,0,1,1-20.24,5.68l-19.24-69.69a1.14,1.14,0,0,0-.59-.6,1.2,1.2,0,0,0-.85,0,1.14,1.14,0,0,0-.64.54,1.25,1.25,0,0,0-.13.84l20.52,77.15,9,35.42a5,5,0,0,1-.84,3.45,4.88,4.88,0,0,1-3,2l-17.59.44a4,4,0,0,0-4.3,2.64l-.1,70.15a11.75,11.75,0,0,1-23.39-.23l-.07-70.85a1.32,1.32,0,0,0-.17-1.07,1.25,1.25,0,0,0-.92-.55,1.27,1.27,0,0,0-1,.37,1.31,1.31,0,0,0-.36,1v71.08a13.11,13.11,0,0,1-25.93-2.78l.06-67.14a4.08,4.08,0,0,0-3.52-2.08l-19-.53a4.64,4.64,0,0,1-2.23-2.34,4.58,4.58,0,0,1-.17-3.23l29.38-112.7a1.34,1.34,0,0,0-1-1.15,1.32,1.32,0,0,0-1.41.47L80.19,248.43a11.18,11.18,0,0,1-21.39-5.77L78,172.4a34.45,34.45,0,0,1,29.43-18.64l30.44,0a31.77,31.77,0,0,1,29.43,18.38Zm-15-194.2,11.56,40.87h7.69l6.27-30.49,6.51,30.49h7.93l11.65-40.87h-8.77l-6.76,29-5.85-29h-9l-6,29-6.16-29Z"/></svg>