<svg id="Calque_1" data-name="Calque 1" xmlns="http://www.w3.org/2000/svg" viewBox="0 0 425.2 425.2"><defs><style>.cls-1{fill-rule:evenodd;}</style></defs><title>GRAVOSIGN_PICTO_29</title><path class="cls-1" d="M75.6,304.06a15.11,15.11,0,0,0,1.69,6.12q1.69,3.62,4.4,3.62H342.16q3.16,0,4.62-3.5a16.42,16.42,0,0,0,1.47-6.25,11.16,11.16,0,0,0-1-4.87,7.87,7.87,0,0,0-3-3.37L215.87,212.6q-1.58-1-1.92-1.25a3.46,3.46,0,0,0-1.69-.25,3,3,0,0,0-1.13.13q-.23.12-1.35.62L79,296.56a5.68,5.68,0,0,0-2.59,3.25A12.83,12.83,0,0,0,75.6,304.06Zm-22.55,1.5a48.87,48.87,0,0,1,2.82-16.12,23,23,0,0,1,9.58-12.37l136.88-89.46.11-.87a14.72,14.72,0,0,0,.11-1.87v-3q0-1.25-.11-2.87t-.11-1.87q0-2.25-2.48-4.87a59.83,59.83,0,0,0-5.52-5.12q-3-2.5-6.09-4.87a18.7,18.7,0,0,1-4.17-4.12A39.24,39.24,0,0,1,177.2,145a52.2,52.2,0,0,1-2.14-15.12,46.36,46.36,0,0,1,3-16.87,45.16,45.16,0,0,1,8.23-13.74,39.54,39.54,0,0,1,12.29-9.37,33.5,33.5,0,0,1,15-3.5,39.89,39.89,0,0,1,14.88,2.87,41.17,41.17,0,0,1,22.21,21.12,38.53,38.53,0,0,1,3.5,16.49,18.32,18.32,0,0,1-2.59,9.75,8.72,8.72,0,0,1-8,4.25q-4.28,0-6.43-2.25a14.81,14.81,0,0,1-3.27-5.62q-1.13-3.37-2-7.25a29.42,29.42,0,0,0-2.71-7.25,15.45,15.45,0,0,0-5.19-5.62q-3.38-2.25-9.47-2.25A15.9,15.9,0,0,0,202,116.52a20.87,20.87,0,0,0-5.07,14.12q0,6.75,3.16,10.75a40.87,40.87,0,0,0,7.44,7.25q4.28,3.25,8.46,6.75a21,21,0,0,1,6.2,9,35.41,35.41,0,0,1,1.8,12v11.24l.9.75,133.73,87.71a27,27,0,0,1,10.26,11.74,37.83,37.83,0,0,1,3.27,15.74A40.88,40.88,0,0,1,370,316.68a37.15,37.15,0,0,1-6,11.24,30.4,30.4,0,0,1-9.24,7.87,24.25,24.25,0,0,1-12,3H81a22.89,22.89,0,0,1-11.27-2.87,30,30,0,0,1-8.91-7.5,34.32,34.32,0,0,1-5.75-10.62A37.94,37.94,0,0,1,53.05,305.56Z"/></svg>