<svg id="Calque_1" data-name="Calque 1" xmlns="http://www.w3.org/2000/svg" viewBox="0 0 425.2 425.2"><defs><style>.cls-1{fill-rule:evenodd;}</style></defs><title>GRAVOSIGN_PICTO_36</title><path class="cls-1" d="M386.72,357.11,221.61,57.17a10.15,10.15,0,0,0-14.22-4,10.67,10.67,0,0,0-3.81,4L38.48,357.11A11.21,11.21,0,0,0,42.29,372a10,10,0,0,0,5.2,1.46H377.71a10.67,10.67,0,0,0,10.41-10.92A11.33,11.33,0,0,0,386.72,357.11ZM65.52,351.65,212.6,84.46,359.68,351.65Z"/><path class="cls-1" d="M188.6,189.08l14.09,83.15a10.12,10.12,0,0,0,8.85,7.78c4.55-.64,8.4-3.35,9.62-7.79l14.09-83.15c1.07-13.31-10.37-25.12-23.71-25.41A23.76,23.76,0,0,0,188.6,189.08Z"/><circle cx="212.54" cy="307.99" r="17.73"/></svg>