<svg id="Calque_1" data-name="Calque 1" xmlns="http://www.w3.org/2000/svg" viewBox="0 0 425.2 425.2"><defs><style>.cls-1{fill:#0b193a;}</style></defs><title>GRAVOSIGN_PICTO_59</title><path class="cls-1" d="M366.58,131.82H196.85a23.37,23.37,0,0,0-23.34,23.34v11.48l-28.46-.08c-15.67,0-20.4,3.11-27.47,10.19L87.86,206.48H35.27v86.65l99.3.25h1.29c10,0,27.34-.71,45.92-18.59l14.87-14.85H366.58a23.37,23.37,0,0,0,23.35-23.35V155.17A23.37,23.37,0,0,0,366.58,131.82ZM196.85,145.14H366.58a10,10,0,0,1,10,10v57.42H237.24a33,33,0,0,0-50.42-35.38v-22A10,10,0,0,1,196.85,145.14Zm-23.23,119c-16,16-29.8,15.91-39,15.91l-86-.22V219.79H93.37L127,186.16c4.82-4.82,6.28-6.28,18-6.28l28.47.08v9.69l-39.67,39.68,9.42,9.41,41.57-41.58.09-.09,6.35-6.35a19.73,19.73,0,1,1,27.9,27.92Zm193-17.53H210l11.12-11.11H376.62v1.07A10,10,0,0,1,366.58,246.62Z"/></svg>