<svg id="Calque_1" data-name="Calque 1" xmlns="http://www.w3.org/2000/svg" viewBox="0 0 425.2 425.2"><defs><style>.cls-1{fill:#1d1d1b;fill-rule:evenodd;}</style></defs><title>GRAVOSIGN_PICTO_46</title><path class="cls-1" d="M336.75,230.76c-6.64-22.36-6.64-43.07,0-65.43l8.16-2.17S332.09,82.75,270.32,71.1a12.54,12.54,0,0,0-4.91,17l.25.43s54.77,26.8,42,100.22a75.12,75.12,0,0,0,4.66,43.12c17.3,29.68,17,57.1,16.8,63.73a18.14,18.14,0,0,1-18.72,17.55c-10-.32-26.63-11.83-26.3-21.84l-.11-73.43S275.86,178,238.11,173V79a20.16,20.16,0,0,0-21-18H103A22.38,22.38,0,0,0,81.91,83.61V338H69.79a1.71,1.71,0,0,0-1.71,1.71V362.5a1.71,1.71,0,0,0,1.71,1.71H248.47a1.71,1.71,0,0,0,1.71-1.71V339.75a1.71,1.71,0,0,0-1.71-1.71H238.11V203.37c7.42-.21,19,1.27,20.56,12.24V289a49.23,49.23,0,0,0,98.45,0C356.94,266.93,350.38,248.15,336.75,230.76ZM213.2,167.22a5.41,5.41,0,0,1-5.41,5.41H113.14a5.41,5.41,0,0,1-5.41-5.41v-72a5.41,5.41,0,0,1,5.41-5.41h94.65a5.41,5.41,0,0,1,5.41,5.41Z"/></svg>